<?xml version="1.0" encoding="UTF-8" standalone="no"?>
<!-- Uploaded to: SVG Repo, www.svgrepo.com, Transformed by: SVG Repo Mixer Tools -->

<svg
   version="1.1"
   id="_x32_"
   width="16"
   height="16"
   viewBox="0 0 10.24 10.24"
   xml:space="preserve"
   fill="#ffd230ff"
   stroke="#ffd230ff"
   sodipodi:docname="atomic_state.svg"
   inkscape:version="1.4.3 (0d15f75042, 2025-12-25)"
   xmlns:inkscape="http://www.inkscape.org/namespaces/inkscape"
   xmlns:sodipodi="http://sodipodi.sourceforge.net/DTD/sodipodi-0.dtd"
   xmlns="http://www.w3.org/2000/svg"
   xmlns:svg="http://www.w3.org/2000/svg"><defs
   id="defs1" /><sodipodi:namedview
   id="namedview1"
   pagecolor="#ffffff"
   bordercolor="#000000"
   borderopacity="0.25"
   inkscape:showpageshadow="2"
   inkscape:pageopacity="0.0"
   inkscape:pagecheckerboard="0"
   inkscape:deskcolor="#d1d1d1"
   inkscape:zoom="44.858854"
   inkscape:cx="11.469308"
   inkscape:cy="7.4901601"
   inkscape:window-width="1920"
   inkscape:window-height="1126"
   inkscape:window-x="0"
   inkscape:window-y="0"
   inkscape:window-maximized="1"
   inkscape:current-layer="_x32_" />

<g
   id="SVGRepo_bgCarrier"
   stroke-width="0" />

<g
   id="SVGRepo_tracerCarrier"
   stroke-linecap="round"
   stroke-linejoin="round" />

<g
   id="SVGRepo_iconCarrier"
   style="fill:#ffd230;fill-opacity:1"
   transform="scale(0.01995987)"> <style
   type="text/css"
   id="style1">  .st0{fill:#ffd230ff;}  </style> <g
   id="g1"
   style="fill:#ffd230;fill-opacity:1"> <path
   class="st0"
   d="m 496,293.984 c 9.031,-0.703 16,-8.25 16,-17.297 v -41.375 c 0,-9.063 -6.969,-16.594 -16,-17.313 l -54.828,-4.281 c -3.484,-0.266 -6.484,-2.453 -7.828,-5.688 l -18.031,-43.516 c -1.344,-3.219 -0.781,-6.906 1.5,-9.547 l 35.75,-41.813 c 5.875,-6.891 5.5,-17.141 -0.922,-23.547 l -29.25,-29.25 c -6.406,-6.406 -16.672,-6.813 -23.547,-0.922 l -41.813,35.75 c -2.641,2.266 -6.344,2.844 -9.547,1.516 L 303.953,78.654 c -3.219,-1.328 -5.422,-4.375 -5.703,-7.828 L 293.984,16.013 C 293.281,6.969 285.75,0 276.688,0 h -41.375 c -9.063,0 -16.594,6.969 -17.297,16.016 l -4.281,54.813 c -0.266,3.469 -2.469,6.5 -5.688,7.828 l -43.531,18.047 c -3.219,1.328 -6.906,0.75 -9.563,-1.516 L 113.156,59.438 C 106.281,53.547 96.031,53.954 89.609,60.36 l -29.25,29.25 c -6.406,6.406 -6.797,16.656 -0.922,23.547 l 35.75,41.813 c 2.25,2.641 2.844,6.328 1.5,9.547 l -18.031,43.516 c -1.313,3.234 -4.359,5.422 -7.813,5.688 L 16,218 c -9.031,0.719 -16,8.25 -16,17.313 v 41.359 c 0,9.063 6.969,16.609 16,17.313 l 54.844,4.266 c 3.453,0.281 6.5,2.484 7.813,5.703 l 18.031,43.516 c 1.344,3.219 0.75,6.922 -1.5,9.563 l -35.75,41.813 c -5.875,6.875 -5.484,17.125 0.922,23.547 l 29.25,29.25 c 6.422,6.406 16.672,6.797 23.547,0.906 l 41.797,-35.75 c 2.656,-2.25 6.344,-2.844 9.563,-1.5 l 43.531,18.031 c 3.219,1.344 5.422,4.359 5.688,7.844 l 4.281,54.813 c 0.703,9.031 8.234,16.016 17.297,16.016 h 41.375 c 9.063,0 16.594,-6.984 17.297,-16.016 l 4.266,-54.813 c 0.281,-3.484 2.484,-6.5 5.703,-7.844 l 43.531,-18.031 c 3.203,-1.344 6.922,-0.75 9.547,1.5 l 41.813,35.75 c 6.875,5.891 17.141,5.5 23.547,-0.906 l 29.25,-29.25 c 6.422,-6.422 6.797,-16.672 0.922,-23.547 l -35.75,-41.813 c -2.25,-2.641 -2.844,-6.344 -1.5,-9.563 l 18.031,-43.516 c 1.344,-3.219 4.344,-5.422 7.828,-5.703 z m -240,48.532 c -23.109,0 -44.844,-9 -61.188,-25.328 -16.344,-16.359 -25.344,-38.078 -25.344,-61.203 0,-23.109 9,-44.844 25.344,-61.172 16.344,-16.359 38.078,-25.344 61.188,-25.344 23.125,0 44.844,8.984 61.188,25.344 16.344,16.328 25.344,38.063 25.344,61.172 0,23.125 -9,44.844 -25.344,61.203 -16.344,16.328 -38.063,25.328 -61.188,25.328 z"
   id="path1"
   style="fill:#ffd230;fill-opacity:1" /> </g> </g>

</svg>
