<?xml version="1.0" encoding="UTF-8" standalone="no"?>
<!-- Uploaded to: SVG Repo, www.svgrepo.com, Transformed by: SVG Repo Mixer Tools -->

<svg
   fill="#ffd230"
   height="16"
   width="16"
   version="1.1"
   id="Layer_1"
   viewBox="0 0 10.24 10.24"
   xml:space="preserve"
   stroke="#ffd230"
   sodipodi:docname="composite_state.svg"
   inkscape:version="1.4.3 (0d15f75042, 2025-12-25)"
   xmlns:inkscape="http://www.inkscape.org/namespaces/inkscape"
   xmlns:sodipodi="http://sodipodi.sourceforge.net/DTD/sodipodi-0.dtd"
   xmlns="http://www.w3.org/2000/svg"
   xmlns:svg="http://www.w3.org/2000/svg"><defs
   id="defs2" /><sodipodi:namedview
   id="namedview2"
   pagecolor="#ffffff"
   bordercolor="#000000"
   borderopacity="0.25"
   inkscape:showpageshadow="2"
   inkscape:pageopacity="0.0"
   inkscape:pagecheckerboard="0"
   inkscape:deskcolor="#d1d1d1"
   inkscape:zoom="34.88"
   inkscape:cx="5.1175459"
   inkscape:cy="6.7373853"
   inkscape:window-width="1920"
   inkscape:window-height="1126"
   inkscape:window-x="0"
   inkscape:window-y="0"
   inkscape:window-maximized="1"
   inkscape:current-layer="Layer_1" />

<g
   id="SVGRepo_bgCarrier"
   stroke-width="0" />

<g
   id="SVGRepo_tracerCarrier"
   stroke-linecap="round"
   stroke-linejoin="round" />

<g
   id="SVGRepo_iconCarrier"
   transform="matrix(0.0198631,0,0,0.0198631,-0.00184583,0.0787389)"> <g
   id="g2"> <g
   id="g1"> <path
   d="M 448,387.925 V 256 124.053 c 24.768,-8.832 42.667,-32.277 42.667,-60.053 0,-35.307 -28.715,-64 -64,-64 -35.285,0 -64,28.693 -64,64 0,27.776 17.899,51.221 42.667,60.053 v 110.613 h -128 V 124.053 C 302.101,115.221 320,91.776 320,64 320,28.693 291.285,0 256,0 c -35.285,0 -64,28.693 -64,64 0,27.776 17.899,51.221 42.667,60.053 v 110.613 h -128 V 124.053 c 24.768,-8.832 42.667,-32.277 42.667,-60.053 0,-35.307 -28.715,-64 -64,-64 -35.285,0 -64,28.693 -64,64 0,27.776 17.899,51.221 42.667,60.053 V 256 c 0,11.776 9.536,21.333 21.333,21.333 H 234.667 V 387.925 C 209.899,396.757 192,420.224 192,448 c 0,35.285 28.715,64 64,64 35.285,0 64,-28.715 64,-64 0,-27.776 -17.899,-51.243 -42.667,-60.075 V 277.333 h 128 v 110.592 c -24.768,8.832 -42.667,32.299 -42.667,60.075 0,35.285 28.715,64 64,64 35.285,0 64,-28.715 64,-64 10e-4,-27.776 -17.898,-51.243 -42.666,-60.075 z"
   id="path1" /> </g> </g> </g>

</svg>
