<?xml version="1.0" encoding="UTF-8" standalone="no"?>
<!-- Uploaded to: SVG Repo, www.svgrepo.com, Transformed by: SVG Repo Mixer Tools -->

<svg
   fill="#ffd230"
   width="16"
   height="16"
   viewBox="0 -14.14 2.4576 2.4576"
   version="1.1"
   id="Layer_1"
   xml:space="preserve"
   stroke="#ffd230"
   sodipodi:docname="state_engine.svg"
   inkscape:version="1.4.3 (0d15f75042, 2025-12-25)"
   xmlns:inkscape="http://www.inkscape.org/namespaces/inkscape"
   xmlns:sodipodi="http://sodipodi.sourceforge.net/DTD/sodipodi-0.dtd"
   xmlns="http://www.w3.org/2000/svg"
   xmlns:svg="http://www.w3.org/2000/svg"><defs
   id="defs1" /><sodipodi:namedview
   id="namedview1"
   pagecolor="#ffffff"
   bordercolor="#000000"
   borderopacity="0.25"
   inkscape:showpageshadow="2"
   inkscape:pageopacity="0.0"
   inkscape:pagecheckerboard="0"
   inkscape:deskcolor="#d1d1d1"
   inkscape:zoom="22.429427"
   inkscape:cx="6.7099351"
   inkscape:cy="11.814836"
   inkscape:window-width="1920"
   inkscape:window-height="1126"
   inkscape:window-x="0"
   inkscape:window-y="0"
   inkscape:window-maximized="1"
   inkscape:current-layer="Layer_1" />

<g
   id="SVGRepo_bgCarrier"
   stroke-width="0" />

<g
   id="SVGRepo_tracerCarrier"
   stroke-linecap="round"
   stroke-linejoin="round" />

<g
   id="SVGRepo_iconCarrier"
   transform="matrix(0.01879573,0,0,0.01879573,0.06409771,-13.83764)"> <style
   type="text/css"
   id="style1">.st0{fill-rule:evenodd;clip-rule:evenodd;}</style> <g
   id="g1"> <path
   class="st0"
   d="M 43.58,92.2 31.9,80.53 h -8.04 c -2.81,0 -5.11,-2.3 -5.11,-5.11 v -8.7 H 13.88 V 76.9 c 0,2.17 -1.78,3.95 -3.95,3.95 H 3.95 C 1.78,80.85 0,79.07 0,76.9 V 42.4 c 0,-2.17 1.78,-3.95 3.95,-3.95 h 5.98 c 2.17,0 3.95,1.78 3.95,3.95 v 10.18 h 4.87 v -9.36 c 0,-2.81 2.3,-5.11 5.11,-5.11 H 32.4 L 44.47,25.28 c 1.4,-1.22 3.26,-1.65 5.43,-1.56 h 49.73 c 1.72,0.19 3.03,0.85 3.83,2.09 0.8,1.22 0.67,1.91 0.67,3.28 V 52.58 H 109 V 42.4 c 0,-2.17 1.78,-3.95 3.95,-3.95 h 5.98 c 2.17,0 3.95,1.78 3.95,3.95 v 34.5 c 0,2.17 -1.78,3.95 -3.95,3.95 h -5.98 C 110.78,80.85 109,79.07 109,76.9 V 66.72 h -4.87 v 0.92 c 0,2.73 0.08,4.38 -1.66,6.64 -0.33,0.43 -0.7,0.84 -1.11,1.22 L 83.53,92.96 c -0.89,0.99 -2.24,1.53 -4.02,1.63 H 49.11 C 46.84,94.49 44.99,93.71 43.58,92.2 Z M 63.71,61.78 51.07,60.59 61.55,37.63 H 75.88 L 67.75,50.8 82.37,52.42 55.53,84.64 Z M 51.98,0 h 34.5 c 2.17,0 3.95,1.78 3.95,3.95 v 5.98 c 0,2.17 -1.78,3.95 -3.95,3.95 H 76.3 v 5.03 H 62.16 V 13.88 H 51.98 c -2.17,0 -3.95,-1.78 -3.95,-3.95 V 3.95 C 48.03,1.78 49.81,0 51.98,0 Z"
   id="path1" /> </g> </g>

</svg>
